<svg width="68" height="67" viewBox="0 0 68 67" fill="none" xmlns="http://www.w3.org/2000/svg">
<path d="M59.5 20.9375V16.75C59.5 15.2692 58.903 13.8491 57.8403 12.802C56.7776 11.7549 55.3362 11.1667 53.8333 11.1667H14.1667C12.6638 11.1667 11.2224 11.7549 10.1597 12.802C9.09702 13.8491 8.5 15.2692 8.5 16.75V55.8333C8.5 57.3141 9.09702 58.7343 10.1597 59.7813C11.2224 60.8284 12.6638 61.4167 14.1667 61.4167H24.0833" stroke="white" stroke-width="5" stroke-linecap="round" stroke-linejoin="round"/>
<path d="M45.3334 5.58334V16.75" stroke="white" stroke-width="5" stroke-linecap="round" stroke-linejoin="round"/>
<path d="M22.6666 5.58334V16.75" stroke="white" stroke-width="5" stroke-linecap="round" stroke-linejoin="round"/>
<path d="M8.5 27.9167H22.6667" stroke="white" stroke-width="5" stroke-linecap="round" stroke-linejoin="round"/>
<path d="M49.5834 48.8542L45.3334 45.3646V39.0833" stroke="white" stroke-width="5" stroke-linecap="round" stroke-linejoin="round"/>
<path d="M62.3334 44.6667C62.3334 49.109 60.5423 53.3695 57.3542 56.5107C54.1661 59.6519 49.8421 61.4167 45.3334 61.4167C40.8247 61.4167 36.5007 59.6519 33.3126 56.5107C30.1244 53.3695 28.3334 49.109 28.3334 44.6667C28.3334 40.2243 30.1244 35.9639 33.3126 32.8226C36.5007 29.6814 40.8247 27.9167 45.3334 27.9167C49.8421 27.9167 54.1661 29.6814 57.3542 32.8226C60.5423 35.9639 62.3334 40.2243 62.3334 44.6667Z" stroke="white" stroke-width="5" stroke-linecap="round" stroke-linejoin="round"/>
</svg>
