<svg width="35" height="35" viewBox="0 0 35 35" fill="none" xmlns="http://www.w3.org/2000/svg">
<path d="M27.7084 20.4167C29.8813 18.2875 32.0834 15.7354 32.0834 12.3958C32.0834 10.2686 31.2383 8.22845 29.7341 6.72425C28.2299 5.22005 26.1898 4.375 24.0625 4.375C21.4959 4.375 19.6875 5.10417 17.5 7.29167C15.3125 5.10417 13.5042 4.375 10.9375 4.375C8.81026 4.375 6.77013 5.22005 5.26593 6.72425C3.76174 8.22845 2.91669 10.2686 2.91669 12.3958C2.91669 15.75 5.10419 18.3021 7.29169 20.4167L17.5 30.625L27.7084 20.4167Z" fill="white"/>
<path d="M17.5 7.29166L13.1833 11.6083C12.887 11.9025 12.6519 12.2524 12.4914 12.6378C12.3309 13.0232 12.2483 13.4366 12.2483 13.8542C12.2483 14.2717 12.3309 14.6851 12.4914 15.0705C12.6519 15.456 12.887 15.8058 13.1833 16.1C14.3792 17.2958 16.2896 17.3396 17.5583 16.2021L20.5771 13.4312C21.3337 12.7446 22.3189 12.3643 23.3406 12.3643C24.3624 12.3643 25.3475 12.7446 26.1042 13.4312L30.4208 17.3104" stroke="#04BCAD" stroke-linecap="round" stroke-linejoin="round"/>
<path d="M26.25 21.875L23.3333 18.9583" stroke="#04BCAD" stroke-linecap="round" stroke-linejoin="round"/>
<path d="M21.875 26.25L18.9583 23.3333" stroke="#04BCAD" stroke-linecap="round" stroke-linejoin="round"/>
</svg>
