<svg width="70" height="68" viewBox="0 0 70 68" fill="none" xmlns="http://www.w3.org/2000/svg">
<path d="M35 42.5L40.8333 48.1667L52.5 36.8333" stroke="white" stroke-width="5" stroke-linecap="round" stroke-linejoin="round"/>
<path d="M58.3334 22.6667H29.1667C25.945 22.6667 23.3334 25.2037 23.3334 28.3333V56.6667C23.3334 59.7963 25.945 62.3333 29.1667 62.3333H58.3334C61.555 62.3333 64.1667 59.7963 64.1667 56.6667V28.3333C64.1667 25.2037 61.555 22.6667 58.3334 22.6667Z" stroke="white" stroke-width="5" stroke-linecap="round" stroke-linejoin="round"/>
<path d="M11.6667 45.3333C8.45837 45.3333 5.83337 42.7833 5.83337 39.6667V11.3333C5.83337 8.21666 8.45837 5.66666 11.6667 5.66666H40.8334C44.0417 5.66666 46.6667 8.21666 46.6667 11.3333" stroke="white" stroke-width="5" stroke-linecap="round" stroke-linejoin="round"/>
</svg>
