<svg width="37" height="39" viewBox="0 0 37 39" fill="none" xmlns="http://www.w3.org/2000/svg">
<path d="M13.875 4.875H6.16667C5.31523 4.875 4.625 5.60254 4.625 6.5V32.5C4.625 33.3975 5.31523 34.125 6.16667 34.125H13.875C14.7264 34.125 15.4167 33.3975 15.4167 32.5V6.5C15.4167 5.60254 14.7264 4.875 13.875 4.875Z" stroke="white" stroke-width="2" stroke-linecap="round" stroke-linejoin="round"/>
<path d="M30.8334 4.875H23.125C22.2736 4.875 21.5834 5.60254 21.5834 6.5V14.625C21.5834 15.5225 22.2736 16.25 23.125 16.25H30.8334C31.6848 16.25 32.375 15.5225 32.375 14.625V6.5C32.375 5.60254 31.6848 4.875 30.8334 4.875Z" stroke="white" stroke-width="2" stroke-linecap="round" stroke-linejoin="round"/>
<path d="M30.8334 22.75H23.125C22.2736 22.75 21.5834 23.4775 21.5834 24.375V32.5C21.5834 33.3975 22.2736 34.125 23.125 34.125H30.8334C31.6848 34.125 32.375 33.3975 32.375 32.5V24.375C32.375 23.4775 31.6848 22.75 30.8334 22.75Z" stroke="white" stroke-width="2" stroke-linecap="round" stroke-linejoin="round"/>
</svg>
