<svg width="68" height="67" viewBox="0 0 68 67" fill="none" xmlns="http://www.w3.org/2000/svg">
<path d="M34 36.2917C35.5648 36.2917 36.8333 35.0418 36.8333 33.5C36.8333 31.9582 35.5648 30.7083 34 30.7083C32.4352 30.7083 31.1666 31.9582 31.1666 33.5C31.1666 35.0418 32.4352 36.2917 34 36.2917Z" stroke="white" stroke-width="5" stroke-linecap="round" stroke-linejoin="round"/>
<path d="M57.2334 56.3917C63.0134 50.7246 57.29 35.845 44.4834 23.1708C31.62 10.5525 16.5184 4.91332 10.7667 10.6083C4.98671 16.2754 10.71 31.155 23.5167 43.8292C36.38 56.4475 51.4817 62.0867 57.2334 56.3917Z" stroke="white" stroke-width="5" stroke-linecap="round" stroke-linejoin="round"/>
<path d="M44.4834 43.8292C57.29 31.155 63.0134 16.2754 57.2334 10.6083C51.4817 4.91332 36.38 10.5525 23.5167 23.1708C10.71 35.845 4.98671 50.7246 10.7667 56.3917C16.5184 62.0867 31.62 56.4475 44.4834 43.8292Z" stroke="white" stroke-width="5" stroke-linecap="round" stroke-linejoin="round"/>
</svg>
