<svg width="65" height="63" viewBox="0 0 65 63" fill="none" xmlns="http://www.w3.org/2000/svg">
<path d="M58.6625 46.3837C58.9581 46.6567 59.1914 46.9867 59.3475 47.3524C59.5036 47.7181 59.579 48.1114 59.5688 48.507C59.5586 48.9026 59.463 49.2918 59.2883 49.6495C59.1135 50.0071 58.8634 50.3254 58.5541 50.5837C52.318 55.5512 44.3978 58.0916 36.3355 57.7104C28.2731 57.3293 20.6456 54.0538 14.9379 48.5217C9.23016 42.9896 5.85071 35.5968 5.45745 27.7825C5.06418 19.9682 7.68526 12.2917 12.8104 6.24749C13.0817 5.9505 13.4132 5.71087 13.7842 5.54354C14.1553 5.3762 14.5579 5.28476 14.967 5.27491C15.3761 5.26506 15.783 5.33701 16.1621 5.48628C16.5413 5.63554 16.8846 5.85893 17.1708 6.14249L58.6625 46.3837Z" stroke="white" stroke-width="5" stroke-linecap="round" stroke-linejoin="round"/>
<path d="M53.2187 41.1075C49.119 44.8761 43.6625 46.9434 38.0126 46.8684C32.3628 46.7935 26.9667 44.5824 22.9748 40.7065C18.9829 36.8306 16.7112 31.5966 16.6439 26.1205C16.5766 20.6444 18.7191 15.3595 22.6146 11.3925" stroke="white" stroke-width="5" stroke-linecap="round" stroke-linejoin="round"/>
<path d="M37.9167 26.25L23.0209 40.6875" stroke="white" stroke-width="5" stroke-linecap="round" stroke-linejoin="round"/>
<path d="M37.9167 46.8563V26.25H16.6562" stroke="white" stroke-width="5" stroke-linecap="round" stroke-linejoin="round"/>
</svg>
