<svg width="126" height="128" viewBox="0 0 126 128" fill="none" xmlns="http://www.w3.org/2000/svg">
<path d="M99.75 74.6667C107.573 66.88 115.5 57.5467 115.5 45.3333C115.5 37.5536 112.458 30.0926 107.043 24.5915C101.628 19.0905 94.2831 16 86.625 16C77.385 16 70.875 18.6667 63 26.6667C55.125 18.6667 48.615 16 39.375 16C31.7169 16 24.3724 19.0905 18.9573 24.5915C13.5422 30.0926 10.5 37.5536 10.5 45.3333C10.5 57.6 18.375 66.9333 26.25 74.6667L63 112L99.75 74.6667Z" fill="white"/>
<path d="M63 26.6667L47.46 42.4533C46.3933 43.5291 45.5467 44.8087 44.969 46.2183C44.3912 47.6279 44.0938 49.1397 44.0938 50.6667C44.0938 52.1936 44.3912 53.7054 44.969 55.1151C45.5467 56.5247 46.3933 57.8042 47.46 58.88C51.765 63.2533 58.6425 63.4133 63.21 59.2533L74.0775 49.12C76.8015 46.609 80.348 45.2181 84.0262 45.2181C87.7045 45.2181 91.251 46.609 93.975 49.12L109.515 63.3067" stroke="#05B3AA" stroke-width="5" stroke-linecap="round" stroke-linejoin="round"/>
<path d="M94.5 80L84 69.3333" stroke="#05B3AA" stroke-width="5" stroke-linecap="round" stroke-linejoin="round"/>
<path d="M78.75 96L68.25 85.3333" stroke="#05B3AA" stroke-width="5" stroke-linecap="round" stroke-linejoin="round"/>
</svg>
