<svg width="39" height="37" viewBox="0 0 39 37" fill="none" xmlns="http://www.w3.org/2000/svg">
<path d="M19.5 33.9167C28.4746 33.9167 35.75 27.0144 35.75 18.5C35.75 9.98562 28.4746 3.08334 19.5 3.08334C10.5254 3.08334 3.25 9.98562 3.25 18.5C3.25 27.0144 10.5254 33.9167 19.5 33.9167Z" stroke="white" stroke-width="2" stroke-linecap="round" stroke-linejoin="round"/>
<path d="M19.5 20.0417C22.1924 20.0417 24.375 17.971 24.375 15.4167C24.375 12.8623 22.1924 10.7917 19.5 10.7917C16.8076 10.7917 14.625 12.8623 14.625 15.4167C14.625 17.971 16.8076 20.0417 19.5 20.0417Z" stroke="white" stroke-width="2" stroke-linecap="round" stroke-linejoin="round"/>
<path d="M11.375 31.8539V29.2917C11.375 28.4739 11.7174 27.6897 12.3269 27.1114C12.9364 26.5332 13.763 26.2083 14.625 26.2083H24.375C25.237 26.2083 26.0636 26.5332 26.6731 27.1114C27.2826 27.6897 27.625 28.4739 27.625 29.2917V31.8539" stroke="white" stroke-width="2" stroke-linecap="round" stroke-linejoin="round"/>
</svg>
